<?xml version="1.0" standalone="no"?>
<svg xmlns:xlink="http://www.w3.org/1999/xlink" id="wave" style="transform:rotate(180deg); transition: 0.3s" viewBox="0 0 1440 490" version="1.1" xmlns="http://www.w3.org/2000/svg"><defs><linearGradient id="sw-gradient-0" x1="0" x2="0" y1="1" y2="0"><stop stop-color="rgba(62, 209.278, 243, 1)" offset="0%"/><stop stop-color="rgba(0, 0, 0, 1)" offset="100%"/></linearGradient></defs><path style="transform:translate(0, 0px); opacity:1" fill="url(#sw-gradient-0)" d="M0,147L30,147C60,147,120,147,180,171.5C240,196,300,245,360,220.5C420,196,480,98,540,89.8C600,82,660,163,720,163.3C780,163,840,82,900,65.3C960,49,1020,98,1080,130.7C1140,163,1200,180,1260,171.5C1320,163,1380,131,1440,138.8C1500,147,1560,196,1620,204.2C1680,212,1740,180,1800,187.8C1860,196,1920,245,1980,277.7C2040,310,2100,327,2160,351.2C2220,376,2280,408,2340,375.7C2400,343,2460,245,2520,204.2C2580,163,2640,180,2700,212.3C2760,245,2820,294,2880,326.7C2940,359,3000,376,3060,375.7C3120,376,3180,359,3240,367.5C3300,376,3360,408,3420,424.7C3480,441,3540,441,3600,392C3660,343,3720,245,3780,212.3C3840,180,3900,212,3960,236.8C4020,261,4080,278,4140,302.2C4200,327,4260,359,4290,375.7L4320,392L4320,490L4290,490C4260,490,4200,490,4140,490C4080,490,4020,490,3960,490C3900,490,3840,490,3780,490C3720,490,3660,490,3600,490C3540,490,3480,490,3420,490C3360,490,3300,490,3240,490C3180,490,3120,490,3060,490C3000,490,2940,490,2880,490C2820,490,2760,490,2700,490C2640,490,2580,490,2520,490C2460,490,2400,490,2340,490C2280,490,2220,490,2160,490C2100,490,2040,490,1980,490C1920,490,1860,490,1800,490C1740,490,1680,490,1620,490C1560,490,1500,490,1440,490C1380,490,1320,490,1260,490C1200,490,1140,490,1080,490C1020,490,960,490,900,490C840,490,780,490,720,490C660,490,600,490,540,490C480,490,420,490,360,490C300,490,240,490,180,490C120,490,60,490,30,490L0,490Z"/></svg>